<svg width="10" height="10" viewBox="0 0 10 10" fill="none" xmlns="http://www.w3.org/2000/svg">
<path d="M5.33594 3.77344V8H4.60938V3.77344H5.33594ZM4.55469 2.65234C4.55469 2.53516 4.58984 2.4362 4.66016 2.35547C4.73307 2.27474 4.83984 2.23438 4.98047 2.23438C5.11849 2.23438 5.22396 2.27474 5.29688 2.35547C5.3724 2.4362 5.41016 2.53516 5.41016 2.65234C5.41016 2.76432 5.3724 2.86068 5.29688 2.94141C5.22396 3.01953 5.11849 3.05859 4.98047 3.05859C4.83984 3.05859 4.73307 3.01953 4.66016 2.94141C4.58984 2.86068 4.55469 2.76432 4.55469 2.65234Z" fill="#535456"/>
<circle cx="5" cy="5" r="4.75" stroke="#535456" stroke-width="0.5"/>
</svg>
