<svg width="60" height="60" viewBox="0 0 60 60" fill="none" xmlns="http://www.w3.org/2000/svg">
<path d="M26.5983 0.0440254C25.155 0.111401 24.4542 0.195621 22.5936 0.532497C22.1932 0.599876 20.6998 0.945175 19.9656 1.13046C19.7236 1.18941 18.5806 1.59367 17.5628 1.96423C17.2958 2.0653 16.937 2.21689 16.7702 2.30953C16.6033 2.40218 16.4281 2.47797 16.378 2.47797C16.2863 2.47797 14.067 3.58125 14.0003 3.66547C13.9752 3.69073 13.7333 3.83391 13.458 3.99393C13.1826 4.15395 12.8656 4.33923 12.7488 4.41502C12.0063 4.91192 11.4473 5.29933 11.4139 5.34144C11.3889 5.36671 11.1302 5.56884 10.8299 5.77938C10.5295 5.99836 10.2125 6.24259 10.1207 6.32681C10.029 6.41103 9.63684 6.76476 9.25305 7.11005C6.52486 9.55243 4.38069 12.4327 2.7371 15.8099C2.42007 16.4753 2.15309 17.0648 2.15309 17.1153C2.15309 17.1659 2.06131 17.4101 1.95285 17.6544C1.63582 18.345 1.26872 19.423 1.03512 20.3325C0.951684 20.6357 0.851567 20.9979 0.809852 21.141C0.768136 21.2842 0.734764 21.4948 0.734764 21.6211C0.734764 21.739 0.701392 21.8653 0.651333 21.8906C0.609618 21.9159 0.567902 22.0675 0.567902 22.2275C0.567902 22.3875 0.53453 22.6065 0.492814 22.716C0.442756 22.8339 0.359325 23.2802 0.284237 23.7097C0.0172587 25.4278 -0.0327999 26.4132 0.0172586 28.6282C0.0673172 31.0958 0.134062 31.8706 0.392697 33.1339C0.559559 33.9845 0.601275 34.1783 0.818195 35.1131C0.960027 35.7195 1.48564 37.3954 1.66919 37.8502C1.71925 37.9681 1.79434 38.1534 1.84439 38.2713C1.88611 38.3892 1.97788 38.5829 2.03629 38.7093C2.10303 38.8272 2.15309 38.9788 2.15309 39.0461C2.15309 39.1809 3.18763 41.2611 3.51301 41.7833C3.63816 41.9854 3.73827 42.1623 3.73827 42.1791C3.73827 42.3644 5.18997 44.4615 6.06599 45.5479C6.65001 46.2638 8.8943 48.5882 9.45329 49.0514C10.8883 50.2474 12.9908 51.7465 14.1671 52.4118C14.7678 52.7571 16.7869 53.7593 17.2958 53.9699C17.6212 54.1046 18.03 54.2815 18.2135 54.3573C19.0228 54.7194 21.8428 55.6122 22.7188 55.789C22.9941 55.8395 23.3529 55.9238 23.5114 55.9659C23.8451 56.0501 24.9881 56.2354 26.0143 56.3617C26.4064 56.4122 27.0238 56.4965 27.3909 56.547C27.758 56.5891 28.5673 56.6312 29.193 56.6312H30.3277L30.3861 57.0186C30.4111 57.2376 30.4361 57.9956 30.4361 58.703V60H31.3455C32.0964 60 32.2633 59.9747 32.305 59.8652C32.33 59.7895 32.3551 59.0315 32.3551 58.1809C32.3551 57.0102 32.3801 56.6144 32.4635 56.5891C32.5553 56.5554 32.9891 56.488 34.3574 56.3028C34.9831 56.2185 35.734 56.0585 36.7352 55.8143C37.194 55.6964 37.6613 55.5869 37.7781 55.5616C38.1618 55.4858 39.8221 54.9131 39.8471 54.8458C39.8638 54.8121 39.9473 54.7784 40.0224 54.7784C40.1058 54.7784 40.3561 54.6857 40.5813 54.5678C40.8066 54.4499 41.0569 54.3573 41.132 54.3573C41.2071 54.3573 41.2988 54.3236 41.3239 54.2731C41.3489 54.2225 41.4407 54.1888 41.5158 54.1888C41.7077 54.1804 44.8113 52.5887 44.9531 52.4287C44.9781 52.4034 45.1033 52.3192 45.2451 52.2518C45.6873 52.0244 47.4727 50.8032 47.7063 50.5674C47.7314 50.5421 47.9733 50.3484 48.257 50.1295C49.108 49.4641 50.0424 48.6135 51.1604 47.485C51.8195 46.8196 53.0542 45.4216 53.2795 45.0847C53.3546 44.9584 53.5465 44.6973 53.6967 44.4952C53.8468 44.293 54.0387 44.032 54.1138 43.9225C54.1889 43.813 54.2974 43.6867 54.3391 43.6277C54.5143 43.434 54.8814 42.9118 54.8814 42.8697C54.8814 42.8445 55.0482 42.5581 55.2568 42.2297C55.4654 41.9012 55.6323 41.598 55.6323 41.5559C55.6323 41.5054 55.6656 41.4717 55.7074 41.4717C55.7491 41.4717 55.8492 41.3032 55.941 41.0927C56.0244 40.8821 56.1162 40.7137 56.1579 40.7137C56.1912 40.7137 56.2163 40.6547 56.2163 40.5874C56.2163 40.5116 56.3081 40.3179 56.4082 40.141C56.6585 39.7367 57.3176 38.3555 57.5178 37.8081C57.6012 37.5723 57.6847 37.3702 57.7097 37.3449C57.7598 37.3028 57.935 36.8564 58.1435 36.2501C58.1936 36.09 58.277 35.8879 58.3104 35.8121C58.3521 35.7279 58.3855 35.5763 58.3855 35.4668C58.3855 35.3573 58.4189 35.2394 58.4522 35.1889C58.5106 35.1215 58.7776 34.313 59.0863 33.2266C59.1614 32.9823 59.2198 32.6539 59.2198 32.5107C59.2198 32.3591 59.2532 32.2075 59.2949 32.157C59.3366 32.1149 59.3867 31.8875 59.4117 31.6601C59.4284 31.4243 59.5118 30.8768 59.5869 30.4389C59.7871 29.2851 60.0624 26.3627 59.9874 26.1437C59.9707 26.0932 59.7704 26.0595 59.5452 26.0595C59.0529 26.0595 59.078 26.0089 59.0196 27.4912C58.9862 28.5187 58.9695 28.6871 58.8026 29.8915C58.5106 31.9885 58.3688 32.7128 58.0684 33.5971C57.9767 33.8751 57.8015 34.4393 57.6763 34.8604C57.5595 35.2731 57.4177 35.7026 57.376 35.8037C57.2425 36.1406 57.1507 36.368 56.8837 37.0501C56.4582 38.1197 55.1567 40.7053 54.7646 41.2527C54.6645 41.3959 54.5059 41.657 54.4142 41.8338C54.3307 42.0107 54.1973 42.2212 54.1305 42.297C54.0554 42.3728 53.9136 42.5834 53.8051 42.7602C53.6967 42.9371 53.5715 43.1224 53.5131 43.1813C53.4631 43.2319 53.3379 43.4171 53.2378 43.5772C53.1377 43.7372 52.9875 43.9477 52.8957 44.0488C52.804 44.1414 52.5954 44.4025 52.4202 44.6383C52.2533 44.8657 52.0865 45.0679 52.0531 45.0931C52.028 45.1184 51.7527 45.4132 51.4607 45.7585C50.7599 46.5585 49.8338 47.5018 48.9495 48.2935C48.5657 48.6388 48.2319 48.9504 48.2069 48.9756C47.9066 49.3125 45.6539 50.9127 44.4108 51.6623C41.4073 53.4898 38.1285 54.7026 34.6077 55.2837C34.0821 55.3763 33.3896 55.4858 33.0809 55.5448C32.6554 55.6122 32.4802 55.6122 32.4135 55.5448C32.2967 55.4269 32.2216 46.1711 32.3133 43.7961L32.3717 42.2381L32.9724 42.1539C34.5076 41.918 34.7829 41.8591 35.4837 41.6654C37.728 41.0506 39.3382 40.3516 41.2404 39.1725C43.176 37.9766 45.5622 35.6689 46.7302 33.8666C46.8971 33.6056 47.1724 33.1845 47.3309 32.9402C48.0317 31.8622 49.2581 28.9903 49.5502 27.7439C49.984 25.8826 50.1258 24.8046 50.1258 23.2465V22.0001L49.8922 21.9159L49.6586 21.8232L49.5502 20.0125C49.4918 19.0187 49.4083 18.1091 49.3666 17.9997C49.3249 17.8902 49.2915 17.6712 49.2915 17.5112C49.2915 17.3512 49.2581 17.1996 49.2081 17.1743C49.1664 17.149 49.1247 17.0143 49.1247 16.888C49.1247 16.7532 49.0663 16.4921 48.9995 16.2984C48.9328 16.1131 48.8994 15.9531 48.9161 15.9531C48.9411 15.9531 48.9077 15.8099 48.841 15.6331C48.7826 15.4646 48.6825 15.153 48.6241 14.9425C48.3654 14.0076 47.456 11.9274 46.7803 10.7315C46.4799 10.2009 45.4704 8.65969 45.2201 8.36493C43.71 6.53736 42.6671 5.45093 41.5742 4.57504C38.9294 2.44429 35.5004 0.810425 32.7305 0.338795C32.597 0.321949 32.1799 0.237732 31.8128 0.170353C31.0118 0.0103378 28.584 -0.0486183 26.5983 0.0440254ZM30.603 1.03782C32.1715 1.2231 32.6054 1.31574 34.2656 1.82106C36.0928 2.37691 36.9438 2.77274 39.3466 4.20448C39.6219 4.36449 40.4979 5.04667 41.1904 5.62779C43.4847 7.548 45.5288 10.2093 46.7135 12.7949C47.2224 13.9234 47.2892 14.075 47.2892 14.134C47.2892 14.1592 47.3559 14.3445 47.4477 14.5466C47.7063 15.1446 48.2236 17.1743 48.3404 18.0502C48.4656 19.044 48.6241 20.8715 48.6241 21.3095V21.8148L48.3154 21.899L47.9983 21.9748L47.9399 23.4908C47.9149 24.3246 47.8482 25.1078 47.7981 25.2425L47.7063 25.4699L37.2608 25.4531L26.8069 25.4278L26.7819 13.1907C26.7652 1.17257 26.7652 0.953598 26.9237 0.894642C27.1156 0.827267 29.5935 0.91991 30.603 1.03782ZM25.7974 1.23152C25.8141 1.34101 25.8224 6.82371 25.8224 13.4265L25.8057 25.4278H20.0907H14.3757L14.309 25.091C14.2756 24.9057 14.2422 24.1308 14.2255 23.3644L14.2088 21.9748H13.1242H12.0396L12.0146 22.9855C11.9228 26.5227 12.9407 30.161 14.943 33.4287C16.2195 35.5258 18.5222 37.8502 20.6831 39.2483C21.8261 39.981 23.6616 40.8821 24.8046 41.2695C25.3135 41.438 25.7473 41.6148 25.7807 41.6738C25.8141 41.7243 25.8474 44.8068 25.8474 48.5293C25.8474 54.0709 25.8308 55.3005 25.739 55.3342C25.6722 55.3595 25.2551 55.3005 24.7962 55.1995C24.3457 55.1068 23.7617 54.9889 23.5114 54.9384C21.7593 54.5763 20.1742 54.0794 18.297 53.3045C13.0408 51.1569 8.75247 47.7713 5.63215 43.3161C5.18163 42.6844 4.82288 42.137 4.82288 42.0949C4.82288 42.0612 4.77282 41.9686 4.70607 41.9012C4.58927 41.7664 4.23052 41.1011 3.62147 39.9136C3.21266 39.1135 2.83722 38.204 2.25321 36.5869C2.09469 36.1574 1.86108 35.2563 1.52736 33.7656C1.46061 33.4371 1.37718 33.1002 1.35215 33.0076C1.27706 32.7465 1.1686 31.9464 1.02677 30.481C0.834881 28.6029 0.901626 26.2953 1.21866 23.9119C1.26872 23.5834 1.31878 23.2634 1.34381 23.196C1.36884 23.1286 1.45227 22.7665 1.52736 22.3959C1.82771 20.9389 1.98623 20.3325 2.15309 19.8693C2.1948 19.7767 2.26155 19.583 2.30326 19.4482C2.82888 17.8817 2.97905 17.5196 3.69656 16.0373C4.1888 15.0099 4.28892 14.8246 4.72276 14.1171C4.86459 13.8729 4.98974 13.6455 4.98974 13.6034C4.98974 13.5613 5.01477 13.5107 5.05648 13.4939C5.08985 13.4771 5.3318 13.1402 5.59878 12.7359C6.09937 11.9864 6.92533 10.8999 7.68455 10.0156C8.78584 8.73549 11.0635 6.67211 12.0396 6.06573C12.1731 5.98151 12.3066 5.88045 12.3317 5.84676C12.3817 5.77938 14.0754 4.68453 14.5009 4.44029C15.3518 3.96024 17.5628 2.89907 17.7129 2.89907C17.7296 2.89907 17.9632 2.79801 18.2219 2.6801C18.6223 2.49482 19.2314 2.29269 20.5496 1.89686C21.1837 1.70315 23.2027 1.2989 24.0036 1.20626C24.3457 1.16415 24.646 1.11361 24.6627 1.08835C24.6878 1.06308 24.9464 1.04624 25.2301 1.04624C25.714 1.04624 25.764 1.06308 25.7974 1.23152ZM46.2713 26.3711L47.5395 26.4216V26.6322C47.5395 26.7417 47.4227 27.2386 47.2808 27.727C45.5204 33.8245 40.5313 38.4145 34.274 39.6946C33.8401 39.7873 33.2311 39.8799 32.9224 39.9136L32.3551 39.9726L32.3467 39.3157C32.3467 38.9451 32.33 36.8901 32.305 34.7341C32.2883 32.5781 32.2967 29.8494 32.3217 28.6619L32.3801 26.5058L34.3491 26.4216C36.7101 26.329 44.5026 26.2869 46.2713 26.3711ZM30.3527 26.6659C30.3527 26.7753 30.3527 29.7399 30.3611 33.2603C30.3611 36.7806 30.3694 39.7452 30.3611 39.8462C30.3527 40.0821 30.2025 40.0905 28.8092 39.9136C22.3183 39.0798 17.0205 34.6415 14.9681 28.3166C14.8012 27.8112 14.5843 26.8511 14.5843 26.6406C14.5843 26.4806 14.7261 26.4806 22.4685 26.4806H30.3527V26.6659ZM28.3003 42.0949C28.7592 42.1707 29.3599 42.2297 29.6352 42.2297C29.9189 42.2297 30.1859 42.2633 30.2443 42.297C30.3193 42.3476 30.3444 43.9309 30.3611 48.9925C30.3611 52.6476 30.3527 55.6374 30.3444 55.6543C30.3277 55.6627 29.5685 55.6543 28.6591 55.629C27.149 55.5785 26.9905 55.5616 26.882 55.4185C26.7819 55.2753 26.7652 54.2057 26.7652 48.563V41.8675L27.1239 41.918C27.3158 41.9433 27.8498 42.0275 28.3003 42.0949Z" fill="black"/>
</svg>
